<svg width="240" height="380" viewBox="0 0 240 380" xmlns="http://www.w3.org/2000/svg">
  <g>
    <path d="M 40 340 L 40 130 L 120 50 L 200 130 L 200 340" fill="none" stroke="#B8B0AB" stroke-width="1.4" stroke-linecap="round" stroke-linejoin="round" opacity="0.85"/>
    <line x1="30" y1="340" x2="210" y2="340" stroke="#B8B0AB" stroke-width="1.4" stroke-linecap="round" opacity="0.85"/>
  </g>
  <g transform="translate(20, 80)">
    <path d="M 70 220 L 80 260 L 120 260 L 130 220 Z" fill="none" stroke="#705C6C" stroke-width="1.8" stroke-linecap="round" stroke-linejoin="round"/>
    <line x1="65" y1="220" x2="135" y2="220" stroke="#705C6C" stroke-width="1.8" stroke-linecap="round"/>
    <ellipse cx="100" cy="220" rx="32" ry="4" fill="#C4A28A" opacity="0.4"/>
    <path d="M 100 218 Q 98 190 100 165 Q 102 150 100 135" fill="none" stroke="#76856C" stroke-width="1.8" stroke-linecap="round" stroke-linejoin="round"/>
    <path d="M 99 195 Q 85 188 78 193 Q 85 198 99 195" fill="none" stroke="#76856C" stroke-width="1.8" stroke-linecap="round" stroke-linejoin="round"/>
    <path d="M 100 195 Q 115 188 122 193 Q 115 198 100 195" fill="none" stroke="#76856C" stroke-width="1.8" stroke-linecap="round" stroke-linejoin="round"/>
    <path d="M 100 175 Q 88 168 82 173 Q 88 178 100 175" fill="none" stroke="#76856C" stroke-width="1.8" stroke-linecap="round" stroke-linejoin="round"/>
    <path d="M 100 175 Q 112 168 118 173 Q 112 178 100 175" fill="none" stroke="#76856C" stroke-width="1.8" stroke-linecap="round" stroke-linejoin="round"/>
    <path d="M 101 155 Q 93 150 90 154" fill="none" stroke="#76856C" stroke-width="1.8" stroke-linecap="round" stroke-linejoin="round"/>
    <path d="M 100 155 Q 108 150 111 154" fill="none" stroke="#76856C" stroke-width="1.8" stroke-linecap="round" stroke-linejoin="round"/>
    <path d="M 100 135 Q 97 132 95 130" fill="none" stroke="#76856C" stroke-width="1.8" stroke-linecap="round" stroke-linejoin="round"/>
    <path d="M 100 135 Q 103 132 105 130" fill="none" stroke="#76856C" stroke-width="1.8" stroke-linecap="round" stroke-linejoin="round"/>
  </g>
</svg>
